<svg width="18" height="18" viewBox="0 0 18 18" fill="none" xmlns="http://www.w3.org/2000/svg">
<path d="M10.049 5.73454C10.1213 5.53293 10.41 5.53293 10.4823 5.73454L10.6801 6.28583C10.7032 6.35036 10.7546 6.40113 10.82 6.424L11.3782 6.61934C11.5823 6.69078 11.5823 6.97589 11.3782 7.04733L10.82 7.24267C10.7546 7.26553 10.7032 7.3163 10.6801 7.38084L10.4823 7.93213C10.41 8.13373 10.1213 8.13374 10.049 7.93213L9.85117 7.38084C9.82802 7.3163 9.77662 7.26553 9.71128 7.24267L9.1531 7.04733C8.94897 6.97589 8.94897 6.69078 9.1531 6.61934L9.71128 6.424C9.77662 6.40113 9.82802 6.35036 9.85117 6.28583L10.049 5.73454Z" fill="white"/>
<path d="M12.2306 8.18414C12.2788 8.04973 12.4712 8.04973 12.5194 8.18414L12.6513 8.55166C12.6667 8.59469 12.701 8.62853 12.7446 8.64378L13.1167 8.774C13.2528 8.82163 13.2528 9.01171 13.1167 9.05933L12.7446 9.18956C12.701 9.2048 12.6667 9.23865 12.6513 9.28167L12.5194 9.6492C12.4712 9.7836 12.2788 9.7836 12.2306 9.6492L12.0987 9.28167C12.0833 9.23865 12.049 9.2048 12.0054 9.18956L11.6333 9.05933C11.4972 9.01171 11.4972 8.82163 11.6333 8.774L12.0054 8.64378C12.049 8.62853 12.0833 8.59469 12.0987 8.55166L12.2306 8.18414Z" fill="white"/>
<path d="M13.327 2.46888C13.4317 2.17704 13.8496 2.17704 13.9543 2.46888L14.3131 3.46913C14.3466 3.56255 14.421 3.63604 14.5156 3.66914L15.5284 4.02356C15.8239 4.12697 15.8239 4.5397 15.5284 4.6431L14.5156 4.99753C14.421 5.03063 14.3466 5.10412 14.3131 5.19754L13.9543 6.19779C13.8496 6.48963 13.4317 6.48963 13.327 6.19779L12.9681 5.19754C12.9346 5.10412 12.8602 5.03063 12.7656 4.99753L11.7529 4.6431C11.4574 4.5397 11.4574 4.12697 11.7529 4.02356L12.7656 3.66914C12.8602 3.63604 12.9346 3.56255 12.9681 3.46913L13.327 2.46888Z" fill="white"/>
<path d="M2.25 10.0947C2.25 13.2181 4.85565 15.75 8.06988 15.75C10.5443 15.75 12.6581 14.2495 13.5 12.1337C12.8332 12.4381 12.0886 12.6082 11.3031 12.6082C8.44605 12.6082 6.12992 10.3576 6.12992 7.58129C6.12992 6.42019 6.53503 5.35103 7.2154 4.5C4.40626 4.90162 2.25 7.25349 2.25 10.0947Z" stroke="white" stroke-width="1.5" stroke-linecap="round" stroke-linejoin="round"/>
</svg>
